<?xml version="1.0" encoding="UTF-8" standalone="no" ?>
<!DOCTYPE svg PUBLIC "-//W3C//DTD SVG 1.1//EN" "http://www.w3.org/Graphics/SVG/1.1/DTD/svg11.dtd">
<svg xmlns="http://www.w3.org/2000/svg" xmlns:xlink="http://www.w3.org/1999/xlink" version="1.1" width="45" height="45" viewBox="0 0 350 350" xml:space="preserve">
<desc>Created with Fabric.js 1.7.22</desc>
<defs>
</defs>
<g id="icon" style="stroke: none; stroke-width: 1; stroke-dasharray: none; stroke-linecap: butt; stroke-linejoin: miter; stroke-miterlimit: 10; fill: none; fill-rule: nonzero; opacity: 1;" transform="translate(-1.9444444444444287 -1.9444444444444287) scale(3.89 3.89)" >
	<path d="M 45 0 C 20.147 0 0 20.147 0 45 c 0 24.853 20.147 45 45 45 s 45 -20.147 45 -45 C 90 20.147 69.853 0 45 0 z M 45 83.5 C 23.737 83.5 6.5 66.263 6.5 45 C 6.5 23.737 23.737 6.5 45 6.5 S 83.5 23.737 83.5 45 C 83.5 66.263 66.263 83.5 45 83.5 z" style="stroke: none; stroke-width: 1; stroke-dasharray: none; stroke-linecap: butt; stroke-linejoin: miter; stroke-miterlimit: 10; fill: #C4D6E9; fill-rule: nonzero; opacity: 1;" transform=" matrix(1 0 0 1 0 0) " stroke-linecap="round" />
	<path d="M 49.731 41.74 h -9.462 c -0.959 0 -1.769 -0.81 -1.769 -1.769 V 32.63 c 0 -0.959 0.81 -1.769 1.769 -1.769 h 9.462 c 0.959 0 1.769 0.81 1.769 1.769 h 6 c 0 -4.284 -3.485 -7.769 -7.769 -7.769 H 48 v -5.502 h -6 v 5.502 h -1.731 c -4.284 0 -7.769 3.485 -7.769 7.769 v 7.341 c 0 4.284 3.485 7.769 7.769 7.769 v 0.001 h 9.462 c 0.959 0 1.769 0.81 1.769 1.769 v 7.341 c 0 0.959 -0.81 1.77 -1.769 1.77 h -9.462 c -0.959 0 -1.769 -0.811 -1.769 -1.77 h -6 c 0 4.284 3.485 7.77 7.769 7.77 H 42 v 5.502 h 6 v -5.502 h 1.731 c 4.283 0 7.769 -3.485 7.769 -7.77 v -7.341 C 57.5 45.225 54.015 41.74 49.731 41.74 z" style="stroke: none; stroke-width: 1; stroke-dasharray: none; stroke-linecap: butt; stroke-linejoin: miter; stroke-miterlimit: 10; fill: #C4D6E9; fill-rule: nonzero; opacity: 1;" transform=" matrix(1 0 0 1 0 0) " stroke-linecap="round" />
</g>
</svg>