<?xml version="1.0" encoding="UTF-8" standalone="no" ?>
<!DOCTYPE svg PUBLIC "-//W3C//DTD SVG 1.1//EN" "http://www.w3.org/Graphics/SVG/1.1/DTD/svg11.dtd">
<svg xmlns="http://www.w3.org/2000/svg" xmlns:xlink="http://www.w3.org/1999/xlink" version="1.1" width="45" height="45" viewBox="0 0 350 350" xml:space="preserve">
<desc>Created with Fabric.js 1.7.22</desc>
<defs>
</defs>
<g id="icon" style="stroke: none; stroke-width: 1; stroke-dasharray: none; stroke-linecap: butt; stroke-linejoin: miter; stroke-miterlimit: 10; fill: none; fill-rule: nonzero; opacity: 1;" transform="translate(-1.9444444444444287 -1.9444444444444287) scale(3.89 3.89)" >
	<path d="M 85.594 51.766 V 35.201 l 1.396 -0.459 C 88.79 34.15 90 32.479 90 30.583 c 0 -1.896 -1.21 -3.567 -3.011 -4.159 l -37.008 -12.16 c -3.261 -1.071 -6.705 -1.07 -9.962 0 L 3.012 26.424 C 1.21 27.016 0 28.687 0 30.583 s 1.21 3.567 3.011 4.159 l 15.146 4.977 v 21.004 c 0 3.131 2.123 5.917 5.163 6.775 c 7.193 2.028 14.436 3.043 21.68 3.043 c 7.243 0 14.487 -1.015 21.681 -3.044 c 3.039 -0.857 5.161 -3.644 5.161 -6.774 V 39.719 l 7.752 -2.547 v 14.594 c -1.893 1.057 -3.177 3.077 -3.177 5.395 s 1.284 4.338 3.177 5.395 v 4.997 c 0 1.657 1.343 3 3 3 s 3 -1.343 3 -3 v -4.997 c 1.893 -1.057 3.177 -3.077 3.177 -5.395 S 87.486 52.823 85.594 51.766 z M 41.892 19.965 c 2.033 -0.668 4.183 -0.668 6.216 0 l 32.317 10.618 L 48.108 41.202 c -2.033 0.668 -4.184 0.668 -6.216 0 L 9.575 30.583 L 41.892 19.965 z M 65.842 60.723 c 0 0.465 -0.318 0.867 -0.791 1 c -13.305 3.753 -26.797 3.754 -40.101 0.001 c -0.474 -0.134 -0.792 -0.536 -0.792 -1.001 V 41.69 l 15.861 5.211 c 1.629 0.536 3.305 0.804 4.981 0.804 c 1.676 0 3.352 -0.268 4.981 -0.803 l 15.86 -5.211 V 60.723 z" style="stroke: none; stroke-width: 1; stroke-dasharray: none; stroke-linecap: butt; stroke-linejoin: miter; stroke-miterlimit: 10; fill: #9aca40; fill-rule: nonzero; opacity: 1;" transform=" matrix(1 0 0 1 0 0) " stroke-linecap="round" />
</g>
</svg>